<?xml version="1.0" encoding="utf-8"?>
<!-- Generator: Adobe Illustrator 16.0.0, SVG Export Plug-In . SVG Version: 6.00 Build 0)  -->
<!DOCTYPE svg PUBLIC "-//W3C//DTD SVG 1.1//EN" "http://www.w3.org/Graphics/SVG/1.1/DTD/svg11.dtd">
<svg version="1.1" id="Layer_1" xmlns="http://www.w3.org/2000/svg" xmlns:xlink="http://www.w3.org/1999/xlink" x="0px" y="0px"
	 width="877px" height="218px" viewBox="0 0 877 218" enable-background="new 0 0 877 218" xml:space="preserve">
<g>
	<defs>
		<rect id="SVGID_1_" width="877" height="218"/>
	</defs>
	<clipPath id="SVGID_2_">
		<use xlink:href="#SVGID_1_"  overflow="visible"/>
	</clipPath>
	<rect opacity="0" clip-path="url(#SVGID_2_)" fill="#FFFFFF" width="877" height="218"/>
</g>
<g>
	<defs>
		<path id="SVGID_3_" d="M93.533,192c1.537-12.288-0.603-21.589-8.136-30.651c-7.533-9.062-27.366-18.889-37.064-23.724
			c-9.698-4.836-23.506-11.149-31.552-17.42C8.734,113.934,3.968,109.201,0.057,100c-0.496,11.894,2.274,19.093,7.502,26.556
			c5.228,7.464,17.391,14.792,23.867,18.225c6.509,3.683,23.55,10.632,36.071,17.949S86.843,172.532,93.533,192z"/>
	</defs>
	<clipPath id="SVGID_4_">
		<use xlink:href="#SVGID_3_"  overflow="visible"/>
	</clipPath>
	<g clip-path="url(#SVGID_4_)">
		<defs>
			<rect id="SVGID_5_" width="877" height="218"/>
		</defs>
		<clipPath id="SVGID_6_">
			<use xlink:href="#SVGID_5_"  overflow="visible"/>
		</clipPath>
		<g clip-path="url(#SVGID_6_)">
			<g>
				<defs>
					<rect id="SVGID_7_" width="877" height="218"/>
				</defs>
				<clipPath id="SVGID_8_">
					<use xlink:href="#SVGID_7_"  overflow="visible"/>
				</clipPath>
				<g clip-path="url(#SVGID_8_)">
					
						<image overflow="visible" width="3655" height="909" xlink:href="82887DED1DEF70E5.jpg"  transform="matrix(0.24 0 0 0.24 0 0)">
					</image>
				</g>
			</g>
		</g>
		<g clip-path="url(#SVGID_6_)">
			<g>
				<defs>
					<rect id="SVGID_9_" width="877" height="218"/>
				</defs>
				<clipPath id="SVGID_10_">
					<use xlink:href="#SVGID_9_"  overflow="visible"/>
				</clipPath>
				<g clip-path="url(#SVGID_10_)">
					
						<image overflow="visible" width="3655" height="909" xlink:href="82887DED1DEF70E7.jpg"  transform="matrix(0.24 0 0 0.24 0 0)">
					</image>
				</g>
			</g>
		</g>
	</g>
</g>
<g>
	<defs>
		<path id="SVGID_11_" d="M93.533,9c1.537,12.154-0.603,21.354-8.136,30.318c-7.533,8.964-27.366,18.684-37.064,23.466
			c-9.698,4.783-23.506,11.028-31.552,17.23C8.734,86.218,3.968,90.898,0.057,100c-0.496-11.765,2.274-18.885,7.502-26.268
			c5.228-7.382,17.391-14.631,23.867-18.026c6.509-3.642,23.55-10.516,36.071-17.754S86.843,28.256,93.533,9z"/>
	</defs>
	<clipPath id="SVGID_12_">
		<use xlink:href="#SVGID_11_"  overflow="visible"/>
	</clipPath>
	<g clip-path="url(#SVGID_12_)">
		<defs>
			<rect id="SVGID_13_" width="877" height="218"/>
		</defs>
		<clipPath id="SVGID_14_">
			<use xlink:href="#SVGID_13_"  overflow="visible"/>
		</clipPath>
		<g clip-path="url(#SVGID_14_)">
			<g>
				<defs>
					<rect id="SVGID_15_" width="877" height="218"/>
				</defs>
				<clipPath id="SVGID_16_">
					<use xlink:href="#SVGID_15_"  overflow="visible"/>
				</clipPath>
				<g clip-path="url(#SVGID_16_)">
					
						<image overflow="visible" width="3655" height="909" xlink:href="82887DED1DEF70E2.jpg"  transform="matrix(0.24 0 0 0.24 0 0)">
					</image>
				</g>
			</g>
		</g>
		<g clip-path="url(#SVGID_14_)">
			<g>
				<defs>
					<rect id="SVGID_17_" width="877" height="218"/>
				</defs>
				<clipPath id="SVGID_18_">
					<use xlink:href="#SVGID_17_"  overflow="visible"/>
				</clipPath>
				<g clip-path="url(#SVGID_18_)">
					
						<image overflow="visible" width="3655" height="909" xlink:href="82887DED1DEF70E3.jpg"  transform="matrix(0.24 0 0 0.24 0 0)">
					</image>
				</g>
			</g>
		</g>
	</g>
</g>
<g>
	<defs>
		<rect id="SVGID_19_" width="877" height="218"/>
	</defs>
	<clipPath id="SVGID_20_">
		<use xlink:href="#SVGID_19_"  overflow="visible"/>
	</clipPath>
	<circle opacity="0.549" clip-path="url(#SVGID_20_)" fill="#1DA8DF" cx="63" cy="110" r="24"/>
	<ellipse opacity="0.651" clip-path="url(#SVGID_20_)" fill="#1A97C8" cx="57.5" cy="86" rx="18.5" ry="19"/>
	<circle opacity="0.6588" clip-path="url(#SVGID_20_)" fill="#067DBB" cx="87.5" cy="96.5" r="17.5"/>
	<g clip-path="url(#SVGID_20_)">
		<text transform="matrix(1 0 0 1 138.5947 85.3496)"><tspan x="0" y="0" fill="#D9D9D9" font-family="'HelveticaNeue'" font-size="66">L</tspan><tspan x="36.96" y="0" fill="#D9D9D9" font-family="'HelveticaNeue'" font-size="66">a</tspan><tspan x="72.005" y="0" fill="#D9D9D9" font-family="'HelveticaNeue'" font-size="66">b</tspan><tspan x="111.01" y="0" fill="#D9D9D9" font-family="'HelveticaNeue'" font-size="66">o</tspan><tspan x="148.959" y="0" fill="#D9D9D9" font-family="'HelveticaNeue'" font-size="66">r</tspan><tspan x="170.937" y="0" fill="#D9D9D9" font-family="'HelveticaNeue'" font-size="66">a</tspan><tspan x="205.982" y="0" fill="#D9D9D9" font-family="'HelveticaNeue'" font-size="66">t</tspan><tspan x="226.969" y="0" fill="#D9D9D9" font-family="'HelveticaNeue'" font-size="66">o</tspan><tspan x="264.919" y="0" fill="#D9D9D9" font-family="'HelveticaNeue'" font-size="66">ry</tspan><tspan x="319.896" y="0" fill="#D9D9D9" font-family="'HelveticaNeue'" font-size="66"> </tspan><tspan x="338.839" y="0" fill="#D9D9D9" font-family="'HelveticaNeue'" font-size="66">o</tspan><tspan x="376.788" y="0" fill="#D9D9D9" font-family="'HelveticaNeue'" font-size="66">f</tspan></text>
	</g>
	<g clip-path="url(#SVGID_20_)">
		<text transform="matrix(1 0 0 1 138.5947 164.3496)"><tspan x="0" y="0" fill="#D9D9D9" font-family="'HelveticaNeue'" font-size="66">S</tspan><tspan x="42.966" y="0" fill="#D9D9D9" font-family="'HelveticaNeue'" font-size="66">ys</tspan><tspan x="108.966" y="0" fill="#D9D9D9" font-family="'HelveticaNeue'" font-size="66">t</tspan><tspan x="129.953" y="0" fill="#D9D9D9" font-family="'HelveticaNeue'" font-size="66">e</tspan><tspan x="164.998" y="0" fill="#D9D9D9" font-family="'HelveticaNeue'" font-size="66">m</tspan><tspan x="221.032" y="0" fill="#D9D9D9" font-family="'HelveticaNeue'" font-size="66">s</tspan><tspan x="254.032" y="0" fill="#D9D9D9" font-family="'HelveticaNeue'" font-size="66"> </tspan><tspan x="272.974" y="0" fill="#D9D9D9" font-family="'HelveticaNeue'" font-size="66">P</tspan><tspan x="315.939" y="0" fill="#D9D9D9" font-family="'HelveticaNeue'" font-size="66">h</tspan><tspan x="352.899" y="0" fill="#D9D9D9" font-family="'HelveticaNeue'" font-size="66">a</tspan><tspan x="387.944" y="0" fill="#D9D9D9" font-family="'HelveticaNeue'" font-size="66">r</tspan><tspan x="409.922" y="0" fill="#D9D9D9" font-family="'HelveticaNeue'" font-size="66">m</tspan><tspan x="465.956" y="0" fill="#D9D9D9" font-family="'HelveticaNeue'" font-size="66">ac</tspan><tspan x="536.046" y="0" fill="#D9D9D9" font-family="'HelveticaNeue'" font-size="66">o</tspan><tspan x="573.995" y="0" fill="#D9D9D9" font-family="'HelveticaNeue'" font-size="66">l</tspan><tspan x="588.977" y="0" fill="#D9D9D9" font-family="'HelveticaNeue'" font-size="66">og</tspan><tspan x="664.875" y="0" fill="#D9D9D9" font-family="'HelveticaNeue'" font-size="66">y</tspan></text>
	</g>
</g>
</svg>
