<?xml version="1.0" encoding="utf-8"?>
<!-- Generator: Adobe Illustrator 23.0.3, SVG Export Plug-In . SVG Version: 6.00 Build 0)  -->
<svg version="1.1"
	 id="Layer_1" inkscape:version="0.92.2 5c3e80d, 2017-08-06" sodipodi:docname="heart.svg" xmlns:cc="http://creativecommons.org/ns#" xmlns:dc="http://purl.org/dc/elements/1.1/" xmlns:inkscape="http://www.inkscape.org/namespaces/inkscape" xmlns:rdf="http://www.w3.org/1999/02/22-rdf-syntax-ns#" xmlns:sodipodi="http://sodipodi.sourceforge.net/DTD/sodipodi-0.dtd" xmlns:svg="http://www.w3.org/2000/svg"
	 xmlns="http://www.w3.org/2000/svg" xmlns:xlink="http://www.w3.org/1999/xlink" x="0px" y="0px" viewBox="0 0 486.8 344.3"
	 style="enable-background:new 0 0 486.8 344.3;" xml:space="preserve">
<style type="text/css">
	.st0{fill:#FFFFFF;stroke:#000000;stroke-width:5;stroke-miterlimit:10;}
	.st1{fill:#3EAAF8;}
	.st2{font-family:'Calibri';}
	.st3{font-size:8px;}
	.st4{fill:none;enable-background:new    ;}
	.st5{fill-rule:evenodd;clip-rule:evenodd;fill:#FFF8F8;stroke:#FFFFFF;}
	.st6{fill-rule:evenodd;clip-rule:evenodd;fill:#FFF8F8;stroke:#FFFFFF;enable-background:new    ;}
	.st7{fill:none;stroke:#FFFFFF;stroke-width:0.75;}
	.st8{fill:#FFFFFF;}
</style>
<sodipodi:namedview  bordercolor="#666666" borderopacity="1" gridtolerance="10" guidetolerance="10" id="namedview171" inkscape:current-layer="Layer_1" inkscape:cx="81.457145" inkscape:cy="126.25448" inkscape:pageopacity="1" inkscape:pageshadow="2" inkscape:window-height="856" inkscape:window-maximized="0" inkscape:window-width="1053" inkscape:window-x="0" inkscape:window-y="0" inkscape:zoom="1.0187242" objecttolerance="10" pagecolor="#000000" showgrid="false">
	</sodipodi:namedview>
<g id="g16">
	
		<image style="overflow:visible;enable-background:new    ;" width="262" height="352" id="image12" xlink:href="C50826E1.png"  transform="matrix(0.6107 0 0 0.6107 115.9555 39.8568)">
	</image>
	
		<image style="overflow:visible;enable-background:new    ;" width="262" height="352" id="image14" xlink:href="C50826E2.png"  transform="matrix(0.6107 0 0 0.6107 115.9555 39.8568)">
	</image>
</g>
<path id="path18" class="st0" d="M287.6,28.6"/>
<a id="a3884" xlink:href="./osd-A20_left_circumflex_artery" >
	<text id="text94" transform="matrix(1 0 0 1 359.6266 62.3949)" class="st1 st2 st3">A20: left circumflex artery</text>
</a>
<image style="overflow:visible;enable-background:new    ;" width="128" height="104" id="image96" xlink:href="C50826E0.png"  transform="matrix(0.2769 0 0 0.2769 387.1993 66.6738)">
</image>
<a id="a4692" xlink:href="./osd-A18_left_anterior_descending_artery" >
	<text transform="matrix(1 0 0 1 333.4421 129.6954)" class="st1 st2 st3">A18: left anterior</text>
	<text transform="matrix(1 0 0 1 330.6921 140.4954)" class="st1 st2 st3">descending artery</text>
</a>
<a id="a4697" xlink:href="./osd-A19_left_anterior_descending_artery" >
	<text transform="matrix(1 0 0 1 406.2397 129.6957)" class="st1 st2 st3">A19: left anterior</text>
	<text transform="matrix(1 0 0 1 403.4897 140.4957)" class="st1 st2 st3">descending artery</text>
</a>
<image style="overflow:visible;enable-background:new    ;" width="157" height="111" id="image110" xlink:href="C508269C.png"  transform="matrix(0.2359 0 0 0.2595 341.3447 146.7709)">
</image>
<image style="overflow:visible;enable-background:new    ;" width="115" height="101" id="image112" xlink:href="C508269D.png"  transform="matrix(0.2805 0 0 0.2805 416.5318 147.0067)">
</image>
<a id="a4702" xlink:href="./osd-A4_posterior_left_ventricle" >
	<text transform="matrix(1 0 0 1 301.0855 216.6144)" class="st1 st2 st3">A4: posterior </text>
	<text transform="matrix(1 0 0 1 303.8355 227.4144)" class="st1 st2 st3">left ventricle</text>
</a>
<image style="overflow:visible;enable-background:new    ;" width="125" height="101" id="image120" xlink:href="C508269E.png"  transform="matrix(0.2811 0 0 0.2811 305.5726 232.0464)">
</image>
<a id="a4707" xlink:href="./osd-A5_posterior_left_ventricle" >
	<text transform="matrix(1 0 0 1 359.5963 216.615)" class="st1 st2 st3">A5: posterior </text>
	<text transform="matrix(1 0 0 1 362.3463 227.415)" class="st1 st2 st3">left ventricle</text>
</a>
<a id="a4712" xlink:href="./osd-A6_posterior_left_ventricle" >
	<text transform="matrix(1 0 0 1 420.3055 216.6148)" class="st1 st2 st3">A6: posterior </text>
	<text transform="matrix(1 0 0 1 423.0555 227.4148)" class="st1 st2 st3">left ventricle</text>
</a>
<image style="overflow:visible;enable-background:new    ;" width="111" height="101" id="image134" xlink:href="C508269F.png"  transform="matrix(0.2802 0 0 0.2802 366.0987 232.0905)">
</image>
<image style="overflow:visible;enable-background:new    ;" width="153" height="101" id="image136" xlink:href="C50826A2.png"  transform="matrix(0.2767 0 0 0.2767 421.1925 232.2677)">
</image>
<a id="a4717" xlink:href="./osd-A2_anterior_left_ventricle" >
	<text transform="matrix(1 0 0 1 325.4542 276.1644)" class="st1 st2 st3">A2: anterior</text>
	<text transform="matrix(1 0 0 1 324.7042 286.9644)" class="st1 st2 st3">left ventricle</text>
</a>
<a id="a4722" xlink:href="./osd-A7_lateral_left_ventricle" >
	<text transform="matrix(1 0 0 1 395.8745 276.1641)" class="st1 st2 st3">A7: lateral</text>
	<text transform="matrix(1 0 0 1 392.1245 286.9641)" class="st1 st2 st3">left ventricle</text>
</a>
<image style="overflow:visible;enable-background:new    ;" width="170" height="101" id="image150" xlink:href="C50826A3.png"  transform="matrix(0.2812 0 0 0.2812 321.1151 291.9576)">
</image>
<image style="overflow:visible;enable-background:new    ;" width="167" height="101" id="image152" xlink:href="7A2D9DAD.png"  transform="matrix(0.2811 0 0 0.2811 388.967 291.9637)">
</image>
<path class="st4" d="M32.4,14.6"/>
<path id="path915" inkscape:connector-curvature="0" sodipodi:nodetypes="cc" class="st5" d="M179.3,148.5"/>
<path class="st6" d="M32.4,14.6"/>
<path id="path2021" inkscape:connector-curvature="0" sodipodi:nodetypes="cc" class="st5" d="M153.3,135.3"/>
<path class="st6" d="M32.4,14.6"/>
<path id="path3863" inkscape:connector-curvature="0" sodipodi:nodetypes="cc" class="st5" d="M168.2,183.2"/>
<path class="st6" d="M32.4,14.6"/>
<path id="path4391" inkscape:connector-curvature="0" sodipodi:nodetypes="cc" class="st5" d="M163,217.9"/>
<path class="st6" d="M32.4,14.6"/>
<path id="path4823" inkscape:connector-curvature="0" sodipodi:nodetypes="cc" class="st5" d="M147.7,233.2"/>
<path class="st6" d="M32.4,14.6"/>
<path id="path5207" inkscape:connector-curvature="0" sodipodi:nodetypes="cc" class="st5" d="M123.1,233.9"/>
<path class="st6" d="M32.4,14.6"/>
<path id="path5441" inkscape:connector-curvature="0" sodipodi:nodetypes="cc" class="st5" d="M81.1,231.3"/>
<g>
	<a id="a4727" xlink:href="./osd-A3_interventricular_septum" >
		<text id="text166" transform="matrix(1 0 0 1 71.111 285.4797)" class="st1 st2 st3">A3: interventricular septum</text>
	</a>
	
		<image style="overflow:visible;enable-background:new    ;" width="135" height="104" id="image168" xlink:href="7A2D9DAC.png"  transform="matrix(0.2769 0 0 0.2769 97.1123 289.6495)">
	</image>
	<g>
		<g>
			<line class="st7" x1="224.8" y1="304" x2="224.8" y2="219.8"/>
			<g>
				<polygon class="st8" points="226.6,220.4 224.8,217.3 222.9,220.4 				"/>
			</g>
		</g>
	</g>
	<line class="st7" x1="224.8" y1="304" x2="146.9" y2="304"/>
</g>
<g>
	<a id="a4730" xlink:href="./osd-A8_right_ventricle" >
		<text id="text162" transform="matrix(1 0 0 1 31.0974 200.666)" class="st1 st2 st3">A8: right ventricle</text>
	</a>
	
		<image style="overflow:visible;enable-background:new    ;" width="135" height="104" id="image164" xlink:href="7A2D9DAB.png"  transform="matrix(0.2769 0 0 0.2769 41.2998 205.9498)">
	</image>
	<g>
		<g>
			<line class="st7" x1="88.6" y1="216.3" x2="183.8" y2="216.3"/>
			<g>
				<polygon class="st8" points="183.1,218.6 187,216.3 183.1,214.1 				"/>
			</g>
		</g>
	</g>
</g>
<g>
	<a id="a4733" xlink:href="./osd-A17_mid_distal_right_coronary_artery" >
		<text transform="matrix(1 0 0 1 13.2472 74.3104)" class="st1 st2 st3">A17: mid distal right </text>
		<text transform="matrix(1 0 0 1 23.7572 85.1104)" class="st1 st2 st3">coronary artery</text>
	</a>
	
		<image style="overflow:visible;enable-background:new    ;" width="170" height="101" id="image160" xlink:href="7A2D9DB0.png"  transform="matrix(0.2846 0 0 0.2846 22.5904 89.9071)">
	</image>
	<line class="st7" x1="103.7" y1="101.5" x2="79.3" y2="101.5"/>
	<line class="st7" x1="103.6" y1="193.9" x2="103.6" y2="101.5"/>
	<g>
		<g>
			<line class="st7" x1="103.6" y1="193.9" x2="139.8" y2="193.9"/>
			<g>
				<polygon class="st8" points="139.1,196.2 143,193.9 139.1,191.7 				"/>
			</g>
		</g>
	</g>
</g>
<a id="a192" xlink:href="./osd-A1_left_atrium" >
	<text id="text90" transform="matrix(1 0 0 1 285.8634 19.9565)" class="st1 st2 st3">A1: left atrium</text>
</a>
<image style="overflow:visible;enable-background:new    ;" width="122" height="101" id="image92" xlink:href="7A2D9DB3.png"  transform="matrix(0.2809 0 0 0.2809 292.8896 24.0019)">
</image>
<line class="st7" x1="284.8" y1="37.3" x2="221.6" y2="37.3"/>
<g>
	<g>
		<line class="st7" x1="222" y1="37.3" x2="222" y2="136.6"/>
		<g>
			<polygon class="st8" points="221.1,136 222,139.4 222.9,136 			"/>
		</g>
	</g>
</g>
<g>
	<g>
		<line class="st7" x1="272.8" y1="151.8" x2="256.8" y2="151.8"/>
		<g>
			<polygon class="st8" points="257.5,149.5 253.6,151.8 257.5,154 			"/>
		</g>
	</g>
</g>
<line class="st7" x1="272.8" y1="151.8" x2="272.8" y2="81.1"/>
<line class="st7" x1="378.7" y1="81.1" x2="272.8" y2="81.1"/>
<g>
	<g>
		<line class="st7" x1="283.8" y1="170.8" x2="241.2" y2="170.8"/>
		<g>
			<polygon class="st8" points="241.8,168.5 237.9,170.8 241.8,173 			"/>
		</g>
	</g>
</g>
<line class="st7" x1="283.8" y1="170.8" x2="283.8" y2="155.5"/>
<line class="st7" x1="329.7" y1="155.1" x2="283.8" y2="155.1"/>
<g>
	<g>
		<line class="st7" x1="279" y1="210" x2="241.1" y2="210"/>
		<g>
			<polygon class="st8" points="242,207.3 236.2,210 242,212.6 			"/>
		</g>
	</g>
</g>
<line class="st7" x1="279" y1="281.6" x2="279" y2="210.9"/>
<line class="st7" x1="302.5" y1="282" x2="279" y2="282"/>
</svg>
