<?xml version="1.0" encoding="utf-8"?>
<!-- Generator: Adobe Illustrator 23.0.3, SVG Export Plug-In . SVG Version: 6.00 Build 0)  -->
<svg version="1.1"
	 id="Layer_1" inkscape:version="0.92.2 5c3e80d, 2017-08-06" sodipodi:docname="heart.svg" xmlns:cc="http://creativecommons.org/ns#" xmlns:dc="http://purl.org/dc/elements/1.1/" xmlns:inkscape="http://www.inkscape.org/namespaces/inkscape" xmlns:rdf="http://www.w3.org/1999/02/22-rdf-syntax-ns#" xmlns:sodipodi="http://sodipodi.sourceforge.net/DTD/sodipodi-0.dtd" xmlns:svg="http://www.w3.org/2000/svg"
	 xmlns="http://www.w3.org/2000/svg" xmlns:xlink="http://www.w3.org/1999/xlink" x="0px" y="0px" viewBox="0 0 420.5 315.1"
	 style="enable-background:new 0 0 420.5 315.1;" xml:space="preserve">
<style type="text/css">
	.st0{fill:#FFFFFF;stroke:#000000;stroke-width:5;stroke-miterlimit:10;}
	.st1{fill:#3EAAF8;}
	.st2{font-family:'Calibri';}
	.st3{font-size:8px;}
	.st4{fill:none;}
	.st5{fill-rule:evenodd;clip-rule:evenodd;fill:#FFF8F8;stroke:#FFFFFF;}
	.st6{fill:none;stroke:#FFFFFF;stroke-width:0.75;}
	.st7{fill:#FFFFFF;}
</style>
<sodipodi:namedview  bordercolor="#666666" borderopacity="1" gridtolerance="10" guidetolerance="10" id="namedview171" inkscape:current-layer="Layer_1" inkscape:cx="81.457145" inkscape:cy="126.25448" inkscape:pageopacity="1" inkscape:pageshadow="2" inkscape:window-height="856" inkscape:window-maximized="0" inkscape:window-width="1053" inkscape:window-x="0" inkscape:window-y="0" inkscape:zoom="1.0187242" objecttolerance="10" pagecolor="#000000" showgrid="false">
	</sodipodi:namedview>
<g id="g16">
	
		<image style="overflow:visible;enable-background:new    ;" width="260" height="350" id="image12" xlink:href="C50826D8.png"  transform="matrix(0.4231 0 0 0.4231 108.5177 58.6865)">
	</image>
	
		<image style="overflow:visible;enable-background:new    ;" width="260" height="350" id="image14" xlink:href="C50826D9.png"  transform="matrix(0.4231 0 0 0.4231 108.5177 58.6865)">
	</image>
</g>
<path id="path18" class="st0" d="M255.2,14"/>
<a id="a192" xlink:href="./osd-A1_left_atrium" >
	<text id="text90" transform="matrix(1 0 0 1 224.4286 13.3478)" class="st1 st2 st3">A1: left atrium</text>
</a>
<image style="overflow:visible;enable-background:new    ;" width="119" height="100" id="image92" xlink:href="C50826DF.png"  transform="matrix(0.288 0 0 0.288 231.4548 17.1796)">
</image>
<a id="a3884" xlink:href="./osd-A20_left_circumflex_artery" >
	<text id="text94" transform="matrix(1 0 0 1 310.1918 47.7862)" class="st1 st2 st3">A20: left circumflex artery</text>
</a>
<image style="overflow:visible;enable-background:new    ;" width="128" height="100" id="image96" xlink:href="C50826DA.png"  transform="matrix(0.288 0 0 0.288 337.0556 52.0651)">
</image>
<a id="a4692" xlink:href="./osd-A18_left_anterior_descending_artery" >
	<text transform="matrix(1 0 0 1 281.9995 110.0867)" class="st1 st2 st3">A18: left anterior</text>
	<text transform="matrix(1 0 0 1 279.2495 120.8867)" class="st1 st2 st3">descending artery</text>
</a>
<a id="a4697" xlink:href="./osd-A19_left_anterior_descending_artery" >
	<text transform="matrix(1 0 0 1 348.8049 110.087)" class="st1 st2 st3">A19: left anterior</text>
	<text transform="matrix(1 0 0 1 346.0549 120.887)" class="st1 st2 st3">descending artery</text>
</a>
<image style="overflow:visible;enable-background:new    ;" width="154" height="100" id="image110" xlink:href="C50826DB.png"  transform="matrix(0.288 0 0 0.288 286.2434 127.1622)">
</image>
<image style="overflow:visible;enable-background:new    ;" width="112" height="100" id="image112" xlink:href="C50826D6.png"  transform="matrix(0.288 0 0 0.288 359.097 127.1626)">
</image>
<a id="a4702" xlink:href="./osd-A4_posterior_left_ventricle" >
	<text transform="matrix(1 0 0 1 250.6507 192.0057)" class="st1 st2 st3">A4: posterior </text>
	<text transform="matrix(1 0 0 1 253.4007 202.8057)" class="st1 st2 st3">left ventricle</text>
</a>
<image style="overflow:visible;enable-background:new    ;" width="122" height="100" id="image120" xlink:href="C50826D7.png"  transform="matrix(0.288 0 0 0.288 255.1378 207.2327)">
</image>
<a id="a4707" xlink:href="./osd-A5_posterior_left_ventricle" >
	<text transform="matrix(1 0 0 1 309.1615 192.0063)" class="st1 st2 st3">A5: posterior </text>
	<text transform="matrix(1 0 0 1 311.9115 202.8063)" class="st1 st2 st3">left ventricle</text>
</a>
<a id="a4712" xlink:href="./osd-A6_posterior_left_ventricle" >
	<text transform="matrix(1 0 0 1 369.8707 192.0061)" class="st1 st2 st3">A6: posterior </text>
	<text transform="matrix(1 0 0 1 372.6207 202.8061)" class="st1 st2 st3">left ventricle</text>
</a>
<image style="overflow:visible;enable-background:new    ;" width="108" height="100" id="image134" xlink:href="C50826E8.png"  transform="matrix(0.288 0 0 0.288 315.6639 207.2327)">
</image>
<image style="overflow:visible;enable-background:new    ;" width="147" height="100" id="image136" xlink:href="C50826EB.png"  transform="matrix(0.288 0 0 0.288 370.7577 207.2327)">
</image>
<a id="a4717" xlink:href="./osd-A2_anterior_left_ventricle" >
	<text transform="matrix(1 0 0 1 275.0194 251.5557)" class="st1 st2 st3">A2: anterior</text>
	<text transform="matrix(1 0 0 1 274.2694 262.3557)" class="st1 st2 st3">left ventricle</text>
</a>
<a id="a4722" xlink:href="./osd-A7_lateral_left_ventricle" >
	<text transform="matrix(1 0 0 1 345.4397 251.5554)" class="st1 st2 st3">A7: lateral</text>
	<text transform="matrix(1 0 0 1 341.6897 262.3554)" class="st1 st2 st3">left ventricle</text>
</a>
<image style="overflow:visible;enable-background:new    ;" width="166" height="100" id="image150" xlink:href="7A2D9D87.png"  transform="matrix(0.288 0 0 0.288 270.6803 267.1507)">
</image>
<image style="overflow:visible;enable-background:new    ;" width="163" height="100" id="image152" xlink:href="7A2D9D85.png"  transform="matrix(0.288 0 0 0.288 338.5322 267.1507)">
</image>
<a id="a4733" xlink:href="./osd-A17_mid_distal_right_coronary_artery" >
	<text transform="matrix(1 0 0 1 6.8124 54.7017)" class="st1 st2 st3">A17: mid distal right </text>
	<text transform="matrix(1 0 0 1 17.3224 65.5017)" class="st1 st2 st3">coronary artery</text>
</a>
<image style="overflow:visible;enable-background:new    ;" width="168" height="100" id="image160" xlink:href="7A2D9D83.png"  transform="matrix(0.288 0 0 0.288 16.1556 70.2713)">
</image>
<a id="a4730" xlink:href="./osd-A8_right_ventricle" >
	<text id="text162" transform="matrix(1 0 0 1 13.6626 168.0573)" class="st1 st2 st3">A8: right ventricle</text>
</a>
<image style="overflow:visible;enable-background:new    ;" width="131" height="100" id="image164" xlink:href="7A2D9D9D.png"  transform="matrix(0.288 0 0 0.288 23.6933 173.3411)">
</image>
<a id="a4727" xlink:href="./osd-A3_interventricular_septum" >
	<text id="text166" transform="matrix(1 0 0 1 45.6762 250.871)" class="st1 st2 st3">A3: interventricular septum</text>
</a>
<image style="overflow:visible;enable-background:new    ;" width="133" height="100" id="image168" xlink:href="7A2D9D9F.png"  transform="matrix(0.288 0 0 0.288 71.2178 255.0408)">
</image>
<path class="st4" d=""/>
<path id="path915" inkscape:connector-curvature="0" sodipodi:nodetypes="cc" class="st5" d="M146.9,133.9"/>
<path class="st4" d=""/>
<path id="path2021" inkscape:connector-curvature="0" sodipodi:nodetypes="cc" class="st5" d="M120.9,120.7"/>
<path class="st4" d=""/>
<path id="path3863" inkscape:connector-curvature="0" sodipodi:nodetypes="cc" class="st5" d="M135.8,168.6"/>
<path class="st4" d=""/>
<path id="path4391" inkscape:connector-curvature="0" sodipodi:nodetypes="cc" class="st5" d="M130.6,203.3"/>
<path class="st4" d=""/>
<path id="path4823" inkscape:connector-curvature="0" sodipodi:nodetypes="cc" class="st5" d="M115.3,218.6"/>
<path class="st4" d=""/>
<path id="path5207" inkscape:connector-curvature="0" sodipodi:nodetypes="cc" class="st5" d="M90.7,219.3"/>
<path class="st4" d=""/>
<path id="path5441" inkscape:connector-curvature="0" sodipodi:nodetypes="cc" class="st5" d="M48.7,216.7"/>
<g>
	<g>
		<line class="st6" x1="183.4" y1="268.4" x2="183.4" y2="181.3"/>
		<g>
			<polygon class="st7" points="185.2,181.9 183.4,178.7 181.5,181.9 			"/>
		</g>
	</g>
</g>
<line class="st6" x1="183.4" y1="268.4" x2="125.7" y2="268.4"/>
<g>
	<g>
		<line class="st6" x1="71.2" y1="183.7" x2="166.4" y2="183.7"/>
		<g>
			<polygon class="st7" points="165.7,186 169.6,183.7 165.7,181.5 			"/>
		</g>
	</g>
</g>
<line class="st6" x1="97.3" y1="81.9" x2="72.9" y2="81.9"/>
<line class="st6" x1="97.2" y1="174.3" x2="97.2" y2="81.9"/>
<g>
	<g>
		<line class="st6" x1="97.2" y1="174.3" x2="133.4" y2="174.3"/>
		<g>
			<polygon class="st7" points="132.7,176.6 136.6,174.3 132.7,172.1 			"/>
		</g>
	</g>
</g>
<line class="st6" x1="223.4" y1="31.3" x2="180.2" y2="31.3"/>
<g>
	<g>
		<line class="st6" x1="180.2" y1="31.3" x2="180.2" y2="127.1"/>
		<g>
			<polygon class="st7" points="178.3,126.5 180.2,129.8 182,126.5 			"/>
		</g>
	</g>
</g>
<g>
	<g>
		<line class="st6" x1="223.4" y1="137.2" x2="207.4" y2="137.2"/>
		<g>
			<polygon class="st7" points="208.1,134.9 204.2,137.2 208.1,139.4 			"/>
		</g>
	</g>
</g>
<line class="st6" x1="223.4" y1="137.2" x2="223.4" y2="66.5"/>
<line class="st6" x1="329.3" y1="66.5" x2="223.4" y2="66.5"/>
<g>
	<g>
		<line class="st6" x1="238.4" y1="149.2" x2="195.8" y2="149.2"/>
		<g>
			<polygon class="st7" points="196.4,146.9 192.5,149.2 196.4,151.4 			"/>
		</g>
	</g>
</g>
<line class="st6" x1="238.4" y1="149.2" x2="238.4" y2="133.9"/>
<line class="st6" x1="269.2" y1="133.7" x2="238.4" y2="133.7"/>
<g>
	<g>
		<line class="st6" x1="217.6" y1="173.7" x2="192.1" y2="173.7"/>
		<g>
			<polygon class="st7" points="192.7,171.5 188.8,173.7 192.7,175.9 			"/>
		</g>
	</g>
</g>
<line class="st6" x1="217.3" y1="244.4" x2="217.3" y2="173.7"/>
<line class="st6" x1="244.7" y1="244.4" x2="217.3" y2="244.4"/>
</svg>
