<svg xmlns="http://www.w3.org/2000/svg" viewBox="0 0 472.85 143.13"><defs><style>.cls-1{fill:#fff}</style></defs><title>Asset 1</title><g id="Layer_2" data-name="Layer 2"><g id="Layer_1-2" data-name="Layer 1"><path class="cls-1" d="M115.54 0a31.4 31.4 0 0 0-31.31 31.11v.22a21 21 0 0 1-20.8 21h-11V20.92H42v31.44H0v10.47h65.26c10.82 0 20.69-7 25.85-16.79a31.3 31.3 0 0 0 3.63-14.64 20.86 20.86 0 0 1 20.79-20.92h23.67V0h-23.66z"/><path class="cls-1" d="M115.55 52.36a20.83 20.83 0 0 1-17.8-10.27 30.82 30.82 0 0 1-2.62 6.78 32.55 32.55 0 0 1-2.46 3.86 31.07 31.07 0 0 0 21 10v.05l1.84.09h23.69V52.36h-23.65zM21 41.85h10.48V10.48H63V41.8h10.44V13.1a21 21 0 0 1 7.84 7.63 31.33 31.33 0 0 1 2.67-7A32.49 32.49 0 0 1 86.26 10 31 31 0 0 0 63.43 0H0v10.48h21zm-1.68 41.9h-7.68v22.48h-4V83.75H0v-3.88h19.32zm24.48 22.48h-4V94.48H27.72v11.75h-4V79.87h4v10.66h12.12V79.87h4v26.36zm23.65 0H49.9V79.87h17v3.84h-13v6.51h7.57v3.84h-7.62v8.32h13.6v3.84zm36.83-4.63a10 10 0 0 1-9.08 5c-6.82 0-11.15-5.61-11.15-13.6s4.33-13.6 11.15-13.6c4.29 0 7.15 1.73 9 4.93l-3.5 2.18c-1.35-2.15-2.75-3.16-5.46-3.16-4.59 0-7.08 3.73-7.08 9.64s2.49 9.64 7.08 9.64a6.27 6.27 0 0 0 5.8-3.28zm22.48 4.63h-17.55V79.87h17v3.84h-13v6.51h7.57v3.84h-7.57v8.32h13.6zm24.89 0h-3.77l-10.5-16.53c-.64-1-1.54-2.56-2-3.24v19.77h-3.84V79.87h4l10 16.08c.68 1.09 1.81 3.05 2.18 3.73V79.87h3.84v26.36zm23.77-22.48h-7.68v22.48h-4V83.75h-7.64v-3.88h19.32v3.88zm21.99 22.48h-17.55V79.87h17v3.84h-13v6.51h7.57v3.84h-7.57v8.32h13.6zm24.89-18.49c0 4.22-2.22 6.82-5.8 7.72l5.39 10.77h-4.56L212.1 95.8h-5.95v10.43h-3.88V79.87h11.56c4.59 0 8.47 2.45 8.47 7.87zm-4 .11c0-2.75-1.81-4.26-4.48-4.26h-7.68v8.47h7.68c2.65.01 4.49-1.34 4.49-4.21zm39.33-4.1h-13v6.89h7.57v3.88h-7.6v11.71h-4V79.87h17zM281.77 93c0 8.21-4.6 13.63-11.3 13.63s-11.18-5.35-11.18-13.56 4.6-13.63 11.26-13.63S281.77 84.8 281.77 93zm-4 .08c0-6-3.09-9.72-7.31-9.72S263.31 87 263.31 93s3.05 9.72 7.27 9.72 7.16-3.64 7.16-9.63zm28.85-5.34c0 4.22-2.22 6.82-5.8 7.72l5.39 10.77h-4.56l-5.23-10.43h-6v10.43h-3.88V79.87h11.56c4.64 0 8.52 2.45 8.52 7.87zm-4 .11c0-2.75-1.81-4.26-4.48-4.26h-7.68v8.47h7.68c2.65.01 4.49-1.34 4.49-4.21zm41.32 13.75a10 10 0 0 1-9.08 5c-6.82 0-11.15-5.61-11.15-13.6s4.33-13.6 11.15-13.6c4.29 0 7.15 1.73 9 4.93l-3.5 2.18c-1.36-2.15-2.75-3.16-5.46-3.16-4.6 0-7.08 3.73-7.08 9.64s2.48 9.64 7.08 9.64a6.27 6.27 0 0 0 5.8-3.28zm25.88 4.63h-4.22l-2.22-6.23h-10.55l-2.18 6.25h-4.11L356 79.87h4.18zm-7.64-9.79l-2.11-6.06c-.64-1.88-1.69-4.93-2-6.06-.3 1.13-1.24 4.14-1.92 6.1l-2.11 6h8.13zm32.11 9.79h-3.77L380 89.7c-.64-1-1.54-2.56-2-3.24v19.77h-3.84V79.87h4L388.3 96c.68 1.09 1.81 3.05 2.18 3.73V79.87h3.84zm25.08-4.63a10 10 0 0 1-9.08 5c-6.82 0-11.15-5.61-11.15-13.6s4.33-13.6 11.15-13.6c4.29 0 7.15 1.73 9 4.93l-3.5 2.18c-1.36-2.15-2.75-3.16-5.46-3.16-4.59 0-7.08 3.73-7.08 9.64s2.49 9.64 7.08 9.64a6.27 6.27 0 0 0 5.8-3.28zm22.49 4.63h-17.55V79.87h17v3.84h-13v6.51h7.57v3.84h-7.57v8.32h13.6zm24.89-18.49c0 4.22-2.22 6.82-5.8 7.72l5.39 10.77h-4.56l-5.23-10.43h-6v10.43h-3.88V79.87h11.56c4.64 0 8.52 2.45 8.52 7.87zm-4 .11c0-2.75-1.81-4.26-4.48-4.26h-7.68v8.47h7.68c2.64.01 4.49-1.34 4.49-4.21zM19.32 135.14c0 4.74-3 8-9.75 8a12.21 12.21 0 0 1-9.38-4.26L3 136.12a9.63 9.63 0 0 0 6.85 3.13c3.69 0 5.46-1.28 5.46-3.84 0-2-1.54-3.05-6-4.37-5.57-1.66-8.25-3.05-8.25-7.76s3.84-7.34 8.7-7.34a11.81 11.81 0 0 1 8.62 3.58l-2.79 2.82a8 8 0 0 0-6.14-2.52c-3.09 0-4.41 1.51-4.41 3.28s1.21 2.75 5.76 4.1c5.28 1.58 8.52 3.24 8.52 7.94zm23.8-18.79l-9.45 15.93v10.43h-4v-10.43l-9.45-15.93h4.63l4.1 7.27c.9 1.62 2.26 4.26 2.71 5.23.45-1 1.77-3.5 2.71-5.2l4.14-7.31zM63 135.14c0 4.74-3 8-9.75 8a12.21 12.21 0 0 1-9.38-4.26l2.82-2.75a9.63 9.63 0 0 0 6.85 3.13c3.69 0 5.46-1.28 5.46-3.84 0-2-1.54-3.05-5.95-4.37-5.57-1.66-8.25-3.05-8.25-7.76s3.84-7.34 8.7-7.34a11.81 11.81 0 0 1 8.62 3.58l-2.79 2.82a8 8 0 0 0-6.14-2.52c-3.09 0-4.41 1.51-4.41 3.28s1.21 2.75 5.76 4.1c5.23 1.57 8.46 3.23 8.46 7.93zm21.89-14.91H77.2v22.48h-4v-22.48h-7.63v-3.88h19.32zm21.99 22.48H89.33v-26.36h17v3.84h-13v6.51h7.57v3.84h-7.62v8.32h13.6zm28.43 0h-3.88v-13.93c0-1.58 0-3.88.07-4.63-.3.75-1.05 2.64-1.69 4.14l-6.4 14.84-6.33-14.84c-.64-1.51-1.39-3.39-1.7-4.14 0 .75.08 3.05.08 4.63v13.93h-3.73v-26.36h4.07l5.91 14c.64 1.51 1.47 3.43 1.81 4.52.38-1.09 1.13-3 1.77-4.52l5.8-14h4.22v26.36zm23.77-7.57c0 4.74-3 8-9.75 8a12.21 12.21 0 0 1-9.38-4.26l2.82-2.75a9.64 9.64 0 0 0 6.85 3.13c3.69 0 5.46-1.28 5.46-3.84 0-2-1.54-3.05-5.95-4.37-5.57-1.66-8.25-3.05-8.25-7.76s3.84-7.34 8.7-7.34a11.81 11.81 0 0 1 8.62 3.58l-2.79 2.82a8 8 0 0 0-6.14-2.52c-3.09 0-4.41 1.51-4.41 3.28s1.21 2.75 5.76 4.1c5.22 1.57 8.46 3.23 8.46 7.93zm37.65-10.54c0 5.42-3.62 8.29-8.74 8.29h-6.89v9.83h-3.88v-26.37h11c4.9 0 8.51 2.79 8.51 8.25zm-4 0a4.16 4.16 0 0 0-4.52-4.52h-7.08v9.07h7.08c2.99.01 4.49-1.73 4.49-4.55zm28.37 18.11h-4V131H205v11.75h-4v-26.4h4V127h12.13v-10.65h4zm27.72 0h-4.22l-2.22-6.25h-10.55l-2.18 6.25h-4.11l9.46-26.36h4.18zm-7.65-9.79l-2.11-6.06c-.64-1.88-1.69-4.93-2-6.06-.3 1.13-1.24 4.14-1.92 6.1l-2.11 6h8.13zm32.13-8.7c0 4.22-2.22 6.82-5.8 7.72l5.39 10.77h-4.56l-5.23-10.43h-6v10.43h-3.88v-26.36h11.56c4.64 0 8.52 2.45 8.52 7.87zm-4 .11c0-2.75-1.81-4.26-4.48-4.26h-7.68v8.47h7.68c2.64.01 4.48-1.34 4.48-4.21zm32.92 18.38h-3.88v-13.93c0-1.58 0-3.88.08-4.63-.3.75-1.05 2.64-1.7 4.14l-6.4 14.84-6.32-14.84c-.64-1.51-1.39-3.39-1.69-4.14 0 .75.08 3.05.08 4.63v13.93h-3.73v-26.36h4.07l5.91 14c.64 1.51 1.47 3.43 1.81 4.52.38-1.09 1.13-3 1.77-4.52l5.8-14h4.22v26.36zm27.71 0h-4.22l-2.22-6.25H313l-2.18 6.25h-4.11l9.49-26.36h4.18zm-7.64-9.79l-2.11-6.06c-.64-1.88-1.69-4.93-2-6.06-.3 1.13-1.24 4.14-1.92 6.1l-2.11 6h8.13zm30.24 5.16a10 10 0 0 1-9.08 5c-6.82 0-11.15-5.61-11.15-13.6s4.33-13.6 11.15-13.6c4.29 0 7.15 1.73 9 4.93l-3.5 2.18c-1.36-2.15-2.75-3.16-5.46-3.16-4.59 0-7.08 3.73-7.08 9.64s2.49 9.64 7.08 9.64a6.27 6.27 0 0 0 5.8-3.28zm25.27-8.58c0 8.21-4.6 13.63-11.3 13.63s-11.18-5.35-11.18-13.56 4.6-13.63 11.26-13.63 11.22 5.34 11.22 13.56zm-4 .07c0-6-3.09-9.72-7.31-9.72s-7.12 3.65-7.12 9.64 3.05 9.72 7.27 9.72 7.13-3.65 7.13-9.64zm25.92 13.14h-17.1v-26.36h4v22.48h13.14v3.88zm24.63-13.21c0 8.21-4.6 13.63-11.3 13.63s-11.18-5.35-11.18-13.56 4.6-13.63 11.26-13.63 11.22 5.34 11.22 13.56zm-4 .07c0-6-3.09-9.72-7.31-9.72s-7.12 3.65-7.12 9.64 3.05 9.72 7.27 9.72 7.13-3.65 7.13-9.64zm28.74 2.82c0 6.78-4.14 10.73-10 10.73-6.82 0-11.15-5.61-11.15-13.6s4.33-13.6 11.15-13.6c4.29 0 7.15 1.73 9 4.93l-3.52 2.15a5.73 5.73 0 0 0-5.5-3.13c-4.6 0-7.12 3.73-7.12 9.64s2.52 9.64 7.12 9.64c4.29 0 6-2.82 6-5.91v-.11h-4.29v-3.8h8.32v3.05zm23.76-16.04l-9.45 15.93v10.43h-4v-10.43l-9.4-15.93h4.63l4.11 7.27c.9 1.62 2.26 4.26 2.71 5.23.45-1 1.77-3.5 2.71-5.2l4.14-7.31z"/></g></g></svg>